<?xml version="1.0" encoding="UTF-8" standalone="no"?>
<svg
   xmlns:dc="http://purl.org/dc/elements/1.1/"
   xmlns:cc="http://creativecommons.org/ns#"
   xmlns:rdf="http://www.w3.org/1999/02/22-rdf-syntax-ns#"
   xmlns:svg="http://www.w3.org/2000/svg"
   xmlns="http://www.w3.org/2000/svg"
   xmlns:sodipodi="http://sodipodi.sourceforge.net/DTD/sodipodi-0.dtd"
   xmlns:inkscape="http://www.inkscape.org/namespaces/inkscape"
   xml:space="preserve"
   width="1832px"
   height="664px"
   version="1.1"
   style="shape-rendering:geometricPrecision; text-rendering:geometricPrecision; image-rendering:optimizeQuality; fill-rule:evenodd; clip-rule:evenodd"
   viewBox="0 0 1832 665"
   id="svg113"
   sodipodi:docname="mlt-logo-ru-dark.svg"
   inkscape:version="1.0.2 (e86c870879, 2021-01-15, custom)"><metadata
   id="metadata117"><rdf:RDF><cc:Work
       rdf:about=""><dc:format>image/svg+xml</dc:format><dc:type
         rdf:resource="http://purl.org/dc/dcmitype/StillImage" /><dc:title></dc:title></cc:Work></rdf:RDF></metadata><sodipodi:namedview
   pagecolor="#ffffff"
   bordercolor="#666666"
   borderopacity="1"
   objecttolerance="10"
   gridtolerance="10"
   guidetolerance="10"
   inkscape:pageopacity="0"
   inkscape:pageshadow="2"
   inkscape:window-width="1920"
   inkscape:window-height="1017"
   id="namedview115"
   showgrid="false"
   inkscape:zoom="0.38127729"
   inkscape:cx="1481.3121"
   inkscape:cy="497.87852"
   inkscape:window-x="-8"
   inkscape:window-y="-8"
   inkscape:window-maximized="1"
   inkscape:current-layer="svg113" />
 <defs
   id="defs4">
  <style
   type="text/css"
   id="style2">
   <![CDATA[
    .fil0 {fill:#008C43}
    .fil4 {fill:#2B2A29}
    .fil2 {fill:#54AF3A}
    .fil1 {fill:#7CB932}
    .fil3 {fill:#2B2A29;fill-rule:nonzero}
   ]]>
  </style>
 
  
  
 
   
   
  </defs>
 <g
   id="g53">
    <polygon
   class="fil0"
   points="0,329 46,319 167,587 112,579 "
   id="polygon7" />
    <polygon
   class="fil0"
   points="49,212 95,198 132,279 85,291 "
   id="polygon9" />
    <polygon
   class="fil1"
   points="0,329 85,291 132,279 46,319 "
   id="polygon11" />
    <polygon
   class="fil0"
   points="208,567 251,546 288,631 233,623 "
   id="polygon13" />
    <polygon
   class="fil2"
   points="46,319 132,279 251,546 167,588 "
   id="polygon15" />
    <polygon
   class="fil2"
   points="475,118 537,89 646,334 586,367 "
   id="polygon17" />
    <polygon
   class="fil2"
   points="95,198 176,162 211,241 132,279 "
   id="polygon19" />
    <polygon
   class="fil2"
   points="141,84 346,0 379,73 176,162 "
   id="polygon21" />
    <polygon
   class="fil2"
   points="524,399 586,367 618,439 558,475 "
   id="polygon23" />
    <polygon
   class="fil2"
   points="379,73 442,45 475,118 412,146 "
   id="polygon25" />
    <polygon
   class="fil0"
   points="436,135 475,118 586,367 544,372 "
   id="polygon27" />
    <polygon
   class="fil0"
   points="479,405 524,399 558,475 511,476 "
   id="polygon29" />
    <polygon
   class="fil1"
   points="49,212 127,178 176,162 95,198 "
   id="polygon31" />
    <polygon
   class="fil1"
   points="241,525 275,509 329,507 251,546 "
   id="polygon33" />
    <polygon
   class="fil1"
   points="479,405 544,372 586,367 524,399 "
   id="polygon35" />
    <polygon
   class="fil1"
   points="355,563 511,476 558,475 365,586 "
   id="polygon37" />
    <polygon
   class="fil0"
   points="321,612 365,586 400,665 340,655 "
   id="polygon39" />
    <polygon
   class="fil0"
   points="95,105 141,84 176,162 127,178 "
   id="polygon41" />
    <polygon
   class="fil0"
   points="339,91 379,73 412,146 368,157 "
   id="polygon43" />
    <polygon
   class="fil2"
   points="365,586 558,475 588,542 400,665 "
   id="polygon45" />
    <polygon
   class="fil2"
   points="251,546 329,507 365,586 288,631 "
   id="polygon47" />
    <polygon
   class="fil1"
   points="378,71 400,61 442,45 379,73 "
   id="polygon49" />
    <polygon
   class="fil1"
   points="473,113 492,105 537,89 475,118 "
   id="polygon51" />
   </g><g
   id="g109"
   style="fill:#ffffff">
    <polygon
   class="fil3"
   points="1186,170 1445,170 1434,230 1339,230 1281,524 1213,524 1271,230 1174,230 "
   id="polygon55"
   style="fill:#ffffff" />
    <path
   class="fil3"
   d="m 1509,171 h 204 l -70,353 h -67 l 58,-294 h -78 l -51,187 c -8,32 -18,52 -29,67 -17,26 -50,37 -77,39 -15,1 -22,1 -41,1 l -2,-63 c 13,1 27,-1 29,-1 54,-8 63,-56 86,-144 z"
   id="path57"
   style="fill:#ffffff" />
    <path
   class="fil4"
   d="m 1795,30 c 6,0 12,1 18,4 6,3 11,8 14,14 3,6 5,12 5,18 0,7 -2,13 -5,18 -3,6 -8,11 -13,14 -6,3 -12,5 -19,5 -6,0 -12,-2 -18,-5 -6,-3 -10,-8 -14,-14 -3,-5 -4,-11 -4,-18 0,-6 1,-12 4,-18 4,-6 8,-11 14,-14 6,-3 12,-4 18,-4 z m 0,6 c -5,0 -10,1 -15,4 -5,2 -8,6 -11,11 -3,5 -4,10 -4,15 0,6 1,11 4,16 2,4 6,8 11,11 5,3 10,4 15,4 6,0 11,-2 15,-4 5,-3 9,-7 12,-11 3,-5 4,-10 4,-16 0,-5 -2,-10 -4,-15 -3,-5 -7,-9 -12,-11 -5,-3 -10,-4 -15,-4 z m -16,50 V 47 h 14 c 4,0 8,0 10,1 2,1 3,2 5,4 1,2 2,4 2,6 0,2 -1,5 -3,7 -2,2 -5,4 -9,4 2,0 3,1 4,2 1,1 3,4 6,8 l 4,7 h -7 l -4,-6 c -3,-5 -5,-8 -7,-9 -1,-1 -2,-2 -5,-2 h -3 v 17 z m 7,-22 h 7 c 4,0 7,0 8,-1 1,-1 2,-3 2,-5 0,-1 -1,-2 -1,-3 -1,-1 -2,-2 -3,-2 -1,0 -3,-1 -6,-1 h -7 z"
   id="path59"
   style="fill:#ffffff" />
    <polygon
   class="fil3"
   points="730,523 828,171 924,171 934,418 1047,171 1144,171 1103,523 1041,523 1079,231 949,523 885,523 873,229 791,523 "
   id="polygon61"
   style="fill:#ffffff" />
    <g
   id="g107"
   style="fill:#ffffff">
     <path
   class="fil3"
   d="m 1398,578 c -4,0 -8,2 -10,4 -3,2 -5,6 -6,10 -1,3 0,7 2,9 2,3 5,4 9,4 4,0 8,-1 11,-4 3,-2 5,-6 6,-9 0,-5 -1,-8 -3,-11 -2,-2 -5,-3 -9,-3 z m 3,-11 c 7,0 12,2 16,7 4,5 5,11 4,18 -2,6 -5,12 -11,17 -6,5 -12,8 -19,8 -7,0 -12,-3 -16,-8 -4,-5 -6,-11 -4,-17 1,-7 5,-13 11,-18 6,-5 12,-7 19,-7 z"
   id="path63"
   style="fill:#ffffff" />
     <polygon
   class="fil3"
   points="1303,602 1293,615 1280,615 1299,591 1290,568 1303,568 1307,580 1317,568 1329,568 1311,591 1321,615 1308,615 "
   id="polygon65"
   style="fill:#ffffff" />
     <polygon
   class="fil3"
   points="1216,578 1218,568 1254,568 1252,578 1239,578 1232,615 1221,615 1229,578 "
   id="polygon67"
   style="fill:#ffffff" />
     <polygon
   class="fil3"
   points="1091,568 1082,615 1071,615 1080,568 "
   id="polygon69"
   style="fill:#ffffff" />
     <polygon
   class="fil3"
   points="1085,593 1086,589 1104,568 1117,568 1097,591 1109,615 1096,615 "
   id="polygon71"
   style="fill:#ffffff" />
     <path
   class="fil3"
   d="m 1059,601 8,6 c 0,1 -1,1 -3,3 -5,4 -11,6 -18,6 -7,0 -13,-2 -17,-7 -4,-4 -5,-10 -3,-17 1,-7 5,-13 10,-18 6,-5 13,-7 20,-7 7,0 15,3 17,10 l -10,6 c -2,-2 -4,-5 -10,-5 -3,0 -7,1 -10,4 -3,2 -5,6 -6,10 -1,3 0,7 2,10 2,2 5,3 8,4 3,0 7,-1 10,-3 1,-1 2,-2 2,-2 z"
   id="path73"
   style="fill:#ffffff" />
     <polygon
   class="fil3"
   points="991,615 980,615 989,568 1000,568 996,587 1009,588 1013,568 1024,568 1014,615 1003,615 1007,597 994,597 "
   id="polygon75"
   style="fill:#ffffff" />
     <path
   class="fil4"
   d="m 1538,568 h 16 l -2,10 h -14 c -1,0 -2,2 -3,3 l -6,34 h -11 l 7,-37 c 1,-6 7,-10 13,-10 z"
   id="path77"
   style="fill:#ffffff" />
     <path
   class="fil3"
   d="m 1467,568 h -23 c -7,0 -11,4 -13,10 -1,7 -3,18 -5,25 0,1 -1,2 -3,2 h -3 l -2,10 h 4 c 5,0 7,1 11,-2 3,-3 4,-9 5,-14 l 4,-21 h 12 l -7,38 h 10 z"
   id="path79"
   style="fill:#ffffff" />
     <polygon
   class="fil3"
   points="851,615 861,568 872,568 866,595 885,568 895,568 886,615 875,615 881,587 862,615 "
   id="polygon81"
   style="fill:#ffffff" />
     <polygon
   class="fil3"
   points="903,568 914,568 906,605 919,605 927,568 938,568 930,605 934,605 930,626 919,626 921,615 894,615 "
   id="polygon83"
   style="fill:#ffffff" />
     <polygon
   class="fil3"
   points="735,615 732,584 726,615 715,615 724,568 741,568 744,595 758,568 775,568 765,615 754,615 760,585 745,615 "
   id="polygon85"
   style="fill:#ffffff" />
     <path
   class="fil3"
   d="m 852,568 h -23 c -10,0 -12,5 -13,10 l -3,18 c -1,2 -2,5 -2,6 -1,1 -3,3 -5,3 h -1 l -4,21 h 11 l 2,-11 h 19 l 2,-10 h -15 c 1,-1 3,-5 3,-7 l 4,-20 h 12 l -8,37 h 4 l -2,11 h 10 l 5,-21 h -4 z"
   id="path87"
   style="fill:#ffffff" />
     <polygon
   class="fil3"
   points="937,615 947,568 958,568 952,595 971,568 982,568 972,615 961,615 967,587 948,615 "
   id="polygon89"
   style="fill:#ffffff" />
     <polygon
   class="fil3"
   points="1116,615 1125,568 1136,568 1131,595 1149,568 1160,568 1150,615 1140,615 1145,587 1127,615 "
   id="polygon91"
   style="fill:#ffffff" />
     <polygon
   class="fil3"
   points="1552,615 1561,568 1572,568 1567,595 1585,568 1596,568 1587,615 1576,615 1581,587 1563,615 "
   id="polygon93"
   style="fill:#ffffff" />
     <polygon
   class="fil3"
   points="1594,615 1603,568 1614,568 1609,595 1627,568 1638,568 1628,615 1617,615 1623,587 1604,615 "
   id="polygon95"
   style="fill:#ffffff" />
     <path
   class="fil4"
   d="m 1269,568 h 16 l -2,10 h -13 c -3,0 -3,1 -4,4 l -1,4 h 15 l -2,10 h -15 l -1,6 c 0,1 0,3 2,3 h 14 l -2,10 h -17 c -6,0 -9,-5 -8,-10 l 5,-27 c 1,-6 7,-10 13,-10 z"
   id="path97"
   style="fill:#ffffff" />
     <polygon
   class="fil3"
   points="1336,615 1326,615 1335,568 1346,568 1342,587 1355,588 1359,568 1370,568 1360,615 1349,615 1353,597 1340,597 "
   id="polygon99"
   style="fill:#ffffff" />
     <path
   class="fil3"
   d="m 1495,578 c -5,0 -8,2 -11,4 -3,2 -5,6 -6,10 -1,3 0,7 2,9 2,3 5,4 9,4 5,0 8,-1 11,-4 3,-2 5,-6 6,-9 1,-5 0,-8 -3,-11 -2,-2 -5,-3 -8,-3 z m 2,-11 c 7,0 12,2 16,7 4,5 5,11 4,18 -1,6 -5,12 -11,17 -5,5 -12,8 -19,8 -7,0 -12,-3 -16,-8 -4,-5 -5,-11 -4,-17 2,-7 5,-13 11,-18 6,-5 13,-7 20,-7 z"
   id="path101"
   style="fill:#ffffff" />
     <path
   class="fil4"
   d="m 1178,568 h 16 l -2,10 h -13 c -3,0 -4,1 -4,4 l -1,4 h 15 l -2,10 h -15 l -1,6 c 0,1 0,3 2,3 h 14 l -2,10 h -17 c -6,0 -10,-5 -9,-10 l 6,-27 c 1,-6 7,-10 13,-10 z"
   id="path103"
   style="fill:#ffffff" />
     <path
   class="fil4"
   d="m 791,568 h 16 l -2,10 h -13 c -2,0 -3,1 -4,4 l -1,4 h 15 l -2,10 h -15 l -1,6 c 0,1 0,3 2,3 h 14 l -2,10 h -16 c -7,0 -10,-5 -9,-10 l 5,-27 c 1,-6 7,-10 13,-10 z"
   id="path105"
   style="fill:#ffffff" />
    </g>
   </g>
</svg>
