<?xml version="1.0" encoding="UTF-8" standalone="no"?>
<svg
   xmlns:dc="http://purl.org/dc/elements/1.1/"
   xmlns:cc="http://creativecommons.org/ns#"
   xmlns:rdf="http://www.w3.org/1999/02/22-rdf-syntax-ns#"
   xmlns:svg="http://www.w3.org/2000/svg"
   xmlns="http://www.w3.org/2000/svg"
   xmlns:sodipodi="http://sodipodi.sourceforge.net/DTD/sodipodi-0.dtd"
   xmlns:inkscape="http://www.inkscape.org/namespaces/inkscape"
   xml:space="preserve"
   width="1864px"
   height="712px"
   version="1.1"
   style="shape-rendering:geometricPrecision; text-rendering:geometricPrecision; image-rendering:optimizeQuality; fill-rule:evenodd; clip-rule:evenodd"
   viewBox="0 0 1864 712"
   id="svg107"
   sodipodi:docname="mlt-logo-en-dark.svg"
   inkscape:version="1.0.2 (e86c870879, 2021-01-15, custom)"><metadata
   id="metadata111"><rdf:RDF><cc:Work
       rdf:about=""><dc:format>image/svg+xml</dc:format><dc:type
         rdf:resource="http://purl.org/dc/dcmitype/StillImage" /><dc:title></dc:title></cc:Work></rdf:RDF></metadata><sodipodi:namedview
   pagecolor="#ffffff"
   bordercolor="#666666"
   borderopacity="1"
   objecttolerance="10"
   gridtolerance="10"
   guidetolerance="10"
   inkscape:pageopacity="0"
   inkscape:pageshadow="2"
   inkscape:window-width="1920"
   inkscape:window-height="1017"
   id="namedview109"
   showgrid="false"
   inkscape:zoom="0.52995074"
   inkscape:cx="1266.1436"
   inkscape:cy="373.18695"
   inkscape:window-x="-8"
   inkscape:window-y="-8"
   inkscape:window-maximized="1"
   inkscape:current-layer="svg107" />
 <defs
   id="defs4">
  <style
   type="text/css"
   id="style2">
   <![CDATA[
    .fil2 {fill:#008C43}
    .fil1 {fill:#2B2A29}
    .fil4 {fill:#54AF3A}
    .fil3 {fill:#7CB932}
    .fil0 {fill:#2B2A29;fill-rule:nonzero}
   ]]>
  </style>
 
  
  
 
   
   
  </defs>
 <g
   id="g55"
   style="fill:#ffffff">
    <polygon
   class="fil0"
   points="1255,185 1530,185 1518,247 1417,247 1356,559 1284,559 1345,247 1243,247 "
   id="polygon7"
   style="fill:#ffffff" />
    <path
   class="fil1"
   d="m 1825,55 c 7,0 13,1 19,5 7,3 11,8 15,14 3,6 5,13 5,20 0,6 -2,13 -5,19 -4,6 -8,11 -14,14 -7,4 -13,5 -20,5 -7,0 -13,-1 -19,-5 -6,-3 -11,-8 -15,-14 -3,-6 -5,-13 -5,-19 0,-7 2,-14 5,-20 4,-6 9,-11 15,-14 6,-4 13,-5 19,-5 z m 0,6 c -5,0 -11,2 -16,4 -5,3 -9,7 -12,12 -3,6 -4,11 -4,17 0,5 1,11 4,16 3,5 7,9 12,12 5,3 10,4 16,4 6,0 11,-1 16,-4 5,-3 9,-7 12,-12 3,-5 4,-11 4,-16 0,-6 -1,-11 -4,-17 -3,-5 -7,-9 -12,-12 -5,-2 -11,-4 -16,-4 z m -17,54 V 73 h 15 c 5,0 8,1 10,1 2,1 4,3 5,4 2,2 2,4 2,7 0,3 -1,5 -3,8 -2,2 -5,3 -9,3 2,1 3,2 4,3 2,1 4,4 6,8 l 5,8 h -8 l -4,-7 c -3,-5 -5,-8 -7,-9 -1,-1 -3,-2 -5,-2 h -4 v 18 z m 7,-23 h 8 c 4,0 7,-1 8,-2 1,-1 2,-3 2,-5 0,-1 0,-2 -1,-3 -1,-1 -2,-2 -3,-2 -1,-1 -3,-1 -6,-1 h -8 z"
   id="path9"
   style="fill:#ffffff" />
    <polygon
   class="fil0"
   points="773,559 876,185 979,185 989,447 1108,185 1212,185 1167,559 1102,559 1142,248 1005,559 936,559 924,246 837,559 "
   id="polygon11"
   style="fill:#ffffff" />
    <polygon
   class="fil0"
   points="1773,496 1760,559 1492,559 1571,185 1647,185 1582,496 "
   id="polygon13"
   style="fill:#ffffff" />
    <g
   id="g53"
   style="fill:#ffffff">
     <path
   class="fil0"
   d="m 1440,621 c -6,0 -11,2 -14,5 -4,4 -7,8 -9,13 -1,5 0,10 3,13 2,3 7,5 12,5 5,0 10,-2 14,-5 4,-3 7,-8 8,-13 1,-6 0,-10 -3,-13 -3,-3 -7,-5 -11,-5 z m 4,-15 c 9,0 15,3 20,10 5,6 7,14 5,23 -3,9 -8,17 -15,23 -8,7 -17,10 -26,10 -9,0 -16,-3 -21,-10 -5,-6 -6,-14 -4,-23 2,-9 7,-17 15,-23 8,-6 16,-9 26,-9 z"
   id="path15"
   style="fill:#ffffff" />
     <polygon
   class="fil0"
   points="1138,621 1141,608 1189,608 1185,621 1169,621 1158,671 1144,671 1155,621 "
   id="polygon17"
   style="fill:#ffffff" />
     <path
   class="fil1"
   d="m 1484,671 h 21 l 4,-14 h -19 c -2,0 -2,-2 -2,-4 l 10,-45 h -14 l -11,49 c -2,8 3,14 11,14 z"
   id="path19"
   style="fill:#ffffff" />
     <polygon
   class="fil0"
   points="775,671 772,630 762,671 748,671 763,608 785,608 787,644 807,608 829,608 814,671 800,671 809,631 787,671 "
   id="polygon21"
   style="fill:#ffffff" />
     <path
   class="fil1"
   d="m 1208,608 h 22 l -3,13 h -17 c -4,0 -5,2 -6,6 l -2,6 h 20 l -3,13 h -20 l -1,7 c -1,2 0,4 2,4 h 18 l -3,14 h -21 c -9,0 -13,-7 -11,-14 l 8,-35 c 2,-8 10,-14 17,-14 z"
   id="path23"
   style="fill:#ffffff" />
     <polygon
   class="fil0"
   points="1301,671 1287,671 1301,608 1315,608 1310,634 1327,634 1332,608 1347,608 1332,671 1318,671 1324,647 1307,647 "
   id="polygon25"
   style="fill:#ffffff" />
     <path
   class="fil0"
   d="m 1550,621 c -5,0 -10,2 -14,5 -4,4 -7,8 -8,13 -1,5 0,10 2,13 3,3 7,5 12,5 6,0 11,-2 14,-5 4,-3 7,-8 9,-13 1,-6 -1,-10 -3,-13 -3,-3 -7,-5 -12,-5 z m 4,-15 c 9,0 16,3 21,10 5,6 6,14 4,23 -2,9 -7,17 -15,23 -8,7 -16,10 -25,10 -9,0 -16,-3 -21,-10 -5,-6 -7,-14 -5,-23 3,-9 8,-17 15,-23 8,-6 17,-9 26,-9 z"
   id="path27"
   style="fill:#ffffff" />
     <path
   class="fil0"
   d="m 997,652 10,8 c 0,0 -1,1 -4,4 -7,5 -15,8 -25,8 -9,0 -16,-3 -21,-9 -5,-7 -6,-14 -4,-24 2,-9 7,-17 15,-23 8,-7 16,-10 26,-10 9,0 19,5 22,14 l -14,8 c -2,-3 -5,-7 -12,-7 -5,0 -10,2 -14,6 -4,3 -7,7 -8,13 -1,4 -1,9 2,12 3,4 6,5 11,6 4,0 9,-2 12,-4 2,0 3,-2 4,-2 z"
   id="path29"
   style="fill:#ffffff" />
     <polygon
   class="fil0"
   points="1664,608 1650,671 1636,671 1650,608 "
   id="polygon31"
   style="fill:#ffffff" />
     <path
   class="fil0"
   d="m 1272,652 11,8 c -1,1 -1,2 -5,4 -7,6 -15,8 -24,8 -9,0 -16,-3 -21,-9 -5,-6 -6,-14 -4,-23 2,-9 7,-17 15,-24 8,-6 16,-9 26,-9 9,0 19,5 22,14 l -14,7 c -2,-2 -5,-6 -12,-6 -5,0 -10,2 -14,5 -4,3 -7,8 -9,13 -1,5 0,10 3,13 2,3 6,5 11,5 3,0 8,-1 12,-3 1,-1 3,-2 3,-3 z"
   id="path33"
   style="fill:#ffffff" />
     <path
   class="fil0"
   d="m 1042,671 4,-16 h -17 l -4,16 h -14 l 10,-45 c 2,-7 11,-18 24,-18 h 4 c 9,0 20,9 18,20 l -10,43 h -15 l 9,-40 c 3,-11 -14,-10 -16,0 l -3,10 h 17 z"
   id="path35"
   style="fill:#ffffff" />
     <polygon
   class="fil0"
   points="1387,671 1402,608 1387,608 1379,643 1371,608 1356,608 1342,671 1356,671 1365,634 1373,671 "
   id="polygon37"
   style="fill:#ffffff" />
     <path
   class="fil1"
   d="m 1687,608 h 21 l -3,14 h -17 c -4,0 -5,1 -6,5 l -1,6 h 20 l -4,13 h -19 l -2,7 c 0,2 0,4 3,4 h 18 l -3,14 h -22 c -8,0 -12,-7 -11,-14 l 8,-35 c 2,-8 10,-14 18,-14 z"
   id="path39"
   style="fill:#ffffff" />
     <path
   class="fil1"
   d="m 1077,671 h 22 l 3,-14 h -18 c -2,0 -3,-2 -2,-4 l 10,-45 h -14 l -12,49 c -1,8 4,14 12,14 z"
   id="path41"
   style="fill:#ffffff" />
     <path
   class="fil0"
   d="m 1702,670 3,-14 c 3,2 6,3 8,3 16,3 15,-7 9,-16 -5,-7 -10,-15 -10,-21 0,-16 21,-15 26,-15 3,1 9,2 13,3 l -3,12 c -7,-3 -20,-4 -21,0 -1,4 0,7 6,14 13,15 12,36 -17,36 -3,0 -11,-1 -14,-2 z"
   id="path43"
   style="fill:#ffffff" />
     <path
   class="fil0"
   d="m 880,671 h -14 l 14,-63 h 14 2 c 8,0 11,0 15,1 3,2 7,4 10,7 4,5 5,10 5,14 1,3 0,6 0,9 -1,3 -2,6 -3,9 -1,2 -3,5 -5,7 -2,3 -4,5 -6,7 -3,2 -5,3 -8,4 -3,2 -7,3 -8,3 -2,0 -7,1 -13,1 h -3 l 3,-13 h 6 c 3,0 9,0 16,-6 7,-6 8,-17 6,-22 -3,-7 -12,-8 -15,-8 h -5 z"
   id="path45"
   style="fill:#ffffff" />
     <polygon
   class="fil0"
   points="953,608 939,671 925,671 939,608 "
   id="polygon47"
   style="fill:#ffffff" />
     <path
   class="fil1"
   d="m 851,608 h 21 l -3,13 h -17 c -4,0 -5,2 -6,6 l -1,6 h 19 l -3,13 h -19 l -2,7 c 0,2 0,4 3,4 h 18 l -3,14 h -22 c -8,0 -13,-7 -11,-14 l 8,-35 c 2,-8 10,-14 18,-14 z"
   id="path49"
   style="fill:#ffffff" />
     <path
   class="fil0"
   d="m 1616,658 3,-16 h 15 l -7,28 c -1,1 -3,1 -5,1 -2,0 -3,1 -5,1 -2,0 -3,0 -5,0 -10,0 -18,-3 -23,-10 -2,-3 -3,-6 -4,-10 -1,-4 -1,-8 0,-12 1,-3 2,-6 3,-8 1,-3 3,-5 5,-8 2,-2 4,-4 6,-6 2,-2 5,-4 7,-5 3,-2 7,-4 10,-5 4,-1 8,-1 12,-1 2,0 5,0 7,0 2,1 4,1 7,1 l -4,16 c -4,-2 -8,-3 -12,-3 -14,-1 -24,6 -27,21 -1,6 3,15 10,16 1,0 5,0 7,0 z"
   id="path51"
   style="fill:#ffffff" />
    </g>
   </g><g
   id="g103">
    <polygon
   class="fil2"
   points="0,353 50,341 179,629 120,621 "
   id="polygon57" />
    <polygon
   class="fil2"
   points="53,228 102,212 141,299 91,312 "
   id="polygon59" />
    <polygon
   class="fil3"
   points="0,353 91,312 141,299 50,341 "
   id="polygon61" />
    <polygon
   class="fil2"
   points="223,608 269,585 309,676 249,667 "
   id="polygon63" />
    <polygon
   class="fil4"
   points="50,341 141,299 269,585 179,629 "
   id="polygon65" />
    <polygon
   class="fil4"
   points="509,126 576,96 693,357 628,393 "
   id="polygon67" />
    <polygon
   class="fil4"
   points="102,212 188,173 226,258 141,299 "
   id="polygon69" />
    <polygon
   class="fil4"
   points="151,90 371,0 406,79 188,173 "
   id="polygon71" />
    <polygon
   class="fil4"
   points="562,428 628,393 662,470 598,509 "
   id="polygon73" />
    <polygon
   class="fil4"
   points="406,79 474,48 509,126 441,157 "
   id="polygon75" />
    <polygon
   class="fil2"
   points="467,145 509,126 628,393 583,399 "
   id="polygon77" />
    <polygon
   class="fil2"
   points="513,434 562,428 598,509 547,510 "
   id="polygon79" />
    <polygon
   class="fil3"
   points="53,228 137,191 188,173 102,212 "
   id="polygon81" />
    <polygon
   class="fil3"
   points="259,563 295,545 353,543 269,585 "
   id="polygon83" />
    <polygon
   class="fil3"
   points="513,434 583,399 628,393 562,428 "
   id="polygon85" />
    <polygon
   class="fil3"
   points="380,603 547,510 598,509 391,628 "
   id="polygon87" />
    <polygon
   class="fil2"
   points="344,656 391,628 429,712 365,702 "
   id="polygon89" />
    <polygon
   class="fil2"
   points="102,112 151,90 188,173 137,191 "
   id="polygon91" />
    <polygon
   class="fil2"
   points="363,97 406,79 441,157 394,168 "
   id="polygon93" />
    <polygon
   class="fil4"
   points="391,628 598,509 630,581 429,712 "
   id="polygon95" />
    <polygon
   class="fil4"
   points="269,585 353,543 391,628 309,676 "
   id="polygon97" />
    <polygon
   class="fil3"
   points="405,76 429,66 474,48 406,79 "
   id="polygon99" />
    <polygon
   class="fil3"
   points="506,121 527,112 576,96 509,126 "
   id="polygon101" />
   </g>
</svg>
