<?xml version="1.0" encoding="UTF-8"?>
<!DOCTYPE svg PUBLIC "-//W3C//DTD SVG 1.1//EN" "http://www.w3.org/Graphics/SVG/1.1/DTD/svg11.dtd">
<!-- Creator: CorelDRAW X8 -->
<svg xmlns="http://www.w3.org/2000/svg" xml:space="preserve" width="1864px" height="712px" version="1.1" style="shape-rendering:geometricPrecision; text-rendering:geometricPrecision; image-rendering:optimizeQuality; fill-rule:evenodd; clip-rule:evenodd"
viewBox="0 0 1864 712"
 xmlns:xlink="http://www.w3.org/1999/xlink">
 <defs>
  <style type="text/css">
   <![CDATA[
    .fil2 {fill:#008C43}
    .fil1 {fill:#2B2A29}
    .fil4 {fill:#54AF3A}
    .fil3 {fill:#7CB932}
    .fil0 {fill:#2B2A29;fill-rule:nonzero}
   ]]>
  </style>
 </defs>
 <g id="Layer_x0020_1">
  <metadata id="CorelCorpID_0Corel-Layer"/>
  <g id="_644204208">
   <g>
    <polygon class="fil0" points="1356,559 1284,559 1345,247 1243,247 1255,185 1530,185 1518,247 1417,247 "/>
    <path class="fil1" d="M1825 55c7,0 13,1 19,5 7,3 11,8 15,14 3,6 5,13 5,20 0,6 -2,13 -5,19 -4,6 -8,11 -14,14 -7,4 -13,5 -20,5 -7,0 -13,-1 -19,-5 -6,-3 -11,-8 -15,-14 -3,-6 -5,-13 -5,-19 0,-7 2,-14 5,-20 4,-6 9,-11 15,-14 6,-4 13,-5 19,-5l0 0zm0 6c-5,0 -11,2 -16,4 -5,3 -9,7 -12,12 -3,6 -4,11 -4,17 0,5 1,11 4,16 3,5 7,9 12,12 5,3 10,4 16,4 6,0 11,-1 16,-4 5,-3 9,-7 12,-12 3,-5 4,-11 4,-16 0,-6 -1,-11 -4,-17 -3,-5 -7,-9 -12,-12 -5,-2 -11,-4 -16,-4l0 0zm-17 54l0 -42 15 0c5,0 8,1 10,1 2,1 4,3 5,4 2,2 2,4 2,7 0,3 -1,5 -3,8 -2,2 -5,3 -9,3 2,1 3,2 4,3 2,1 4,4 6,8l5 8 -8 0 -4 -7c-3,-5 -5,-8 -7,-9 -1,-1 -3,-2 -5,-2l-4 0 0 18 -7 0zm7 -23l8 0c4,0 7,-1 8,-2 1,-1 2,-3 2,-5 0,-1 0,-2 -1,-3 -1,-1 -2,-2 -3,-2 -1,-1 -3,-1 -6,-1l-8 0 0 13 0 0z"/>
    <polygon class="fil0" points="1005,559 936,559 924,246 837,559 773,559 876,185 979,185 989,447 1108,185 1212,185 1167,559 1102,559 1142,248 "/>
    <polygon class="fil0" points="1492,559 1571,185 1647,185 1582,496 1773,496 1760,559 "/>
    <g>
     <path class="fil0" d="M1440 621c-6,0 -11,2 -14,5 -4,4 -7,8 -9,13 -1,5 0,10 3,13 2,3 7,5 12,5 5,0 10,-2 14,-5 4,-3 7,-8 8,-13 1,-6 0,-10 -3,-13 -3,-3 -7,-5 -11,-5l0 0zm4 -15c9,0 15,3 20,10 5,6 7,14 5,23 -3,9 -8,17 -15,23 -8,7 -17,10 -26,10 -9,0 -16,-3 -21,-10 -5,-6 -6,-14 -4,-23 2,-9 7,-17 15,-23 8,-6 16,-9 26,-9l0 -1z"/>
     <polygon class="fil0" points="1169,621 1158,671 1144,671 1155,621 1138,621 1141,608 1189,608 1185,621 "/>
     <path class="fil1" d="M1484 671l21 0 4 -14 -19 0c-2,0 -2,-2 -2,-4l10 -45 -14 0 -11 49c-2,8 3,14 11,14l0 0z"/>
     <polygon class="fil0" points="814,671 800,671 809,631 787,671 775,671 772,630 762,671 748,671 763,608 785,608 787,644 807,608 829,608 "/>
     <path class="fil1" d="M1208 608l22 0 -3 13 -17 0c-4,0 -5,2 -6,6l-2 6 20 0 -3 13 -20 0 -1 7c-1,2 0,4 2,4l18 0 -3 14 -21 0c-9,0 -13,-7 -11,-14l8 -35c2,-8 10,-14 17,-14l0 0z"/>
     <polygon class="fil0" points="1332,671 1318,671 1324,647 1307,647 1301,671 1287,671 1301,608 1315,608 1310,634 1327,634 1332,608 1347,608 "/>
     <path class="fil0" d="M1550 621c-5,0 -10,2 -14,5 -4,4 -7,8 -8,13 -1,5 0,10 2,13 3,3 7,5 12,5 6,0 11,-2 14,-5 4,-3 7,-8 9,-13 1,-6 -1,-10 -3,-13 -3,-3 -7,-5 -12,-5l0 0zm4 -15c9,0 16,3 21,10 5,6 6,14 4,23 -2,9 -7,17 -15,23 -8,7 -16,10 -25,10 -9,0 -16,-3 -21,-10 -5,-6 -7,-14 -5,-23 3,-9 8,-17 15,-23 8,-6 17,-9 26,-9l0 -1z"/>
     <path class="fil0" d="M997 652l10 8c0,0 -1,1 -4,4 -7,5 -15,8 -25,8 -9,0 -16,-3 -21,-9 -5,-7 -6,-14 -4,-24 2,-9 7,-17 15,-23 8,-7 16,-10 26,-10 9,0 19,5 22,14l-14 8c-2,-3 -5,-7 -12,-7 -5,0 -10,2 -14,6 -4,3 -7,7 -8,13 -1,4 -1,9 2,12 3,4 6,5 11,6 4,0 9,-2 12,-4 2,0 3,-2 4,-2l0 0z"/>
     <polygon class="fil0" points="1664,608 1650,671 1636,671 1650,608 "/>
     <path class="fil0" d="M1272 652l11 8c-1,1 -1,2 -5,4 -7,6 -15,8 -24,8 -9,0 -16,-3 -21,-9 -5,-6 -6,-14 -4,-23 2,-9 7,-17 15,-24 8,-6 16,-9 26,-9 9,0 19,5 22,14l-14 7c-2,-2 -5,-6 -12,-6 -5,0 -10,2 -14,5 -4,3 -7,8 -9,13 -1,5 0,10 3,13 2,3 6,5 11,5 3,0 8,-1 12,-3 1,-1 3,-2 3,-3l0 0z"/>
     <path class="fil0" d="M1042 671l4 -16 -17 0 -4 16 -14 0 10 -45c2,-7 11,-18 24,-18l4 0c9,0 20,9 18,20l-10 43 -15 0 9 -40c3,-11 -14,-10 -16,0l-3 10 17 0 -7 30 0 0z"/>
     <polygon class="fil0" points="1342,671 1356,671 1365,634 1373,671 1387,671 1402,608 1387,608 1379,643 1371,608 1356,608 "/>
     <path class="fil1" d="M1687 608l21 0 -3 14 -17 0c-4,0 -5,1 -6,5l-1 6 20 0 -4 13 -19 0 -2 7c0,2 0,4 3,4l18 0 -3 14 -22 0c-8,0 -12,-7 -11,-14l8 -35c2,-8 10,-14 18,-14l0 0z"/>
     <path class="fil1" d="M1077 671l22 0 3 -14 -18 0c-2,0 -3,-2 -2,-4l10 -45 -14 0 -12 49c-1,8 4,14 12,14l-1 0z"/>
     <path class="fil0" d="M1702 670l3 -14c3,2 6,3 8,3 16,3 15,-7 9,-16 -5,-7 -10,-15 -10,-21 0,-16 21,-15 26,-15 3,1 9,2 13,3l-3 12c-7,-3 -20,-4 -21,0 -1,4 0,7 6,14 13,15 12,36 -17,36 -3,0 -11,-1 -14,-2l0 0z"/>
     <path class="fil0" d="M880 671l-14 0 14 -63 14 0 2 0c8,0 11,0 15,1 3,2 7,4 10,7 4,5 5,10 5,14 1,3 0,6 0,9 -1,3 -2,6 -3,9 -1,2 -3,5 -5,7 -2,3 -4,5 -6,7 -3,2 -5,3 -8,4 -3,2 -7,3 -8,3 -2,0 -7,1 -13,1l-3 0 3 -13 6 0c3,0 9,0 16,-6 7,-6 8,-17 6,-22 -3,-7 -12,-8 -15,-8l-5 0 -11 50 0 0z"/>
     <polygon class="fil0" points="953,608 939,671 925,671 939,608 "/>
     <path class="fil1" d="M851 608l21 0 -3 13 -17 0c-4,0 -5,2 -6,6l-1 6 19 0 -3 13 -19 0 -2 7c0,2 0,4 3,4l18 0 -3 14 -22 0c-8,0 -13,-7 -11,-14l8 -35c2,-8 10,-14 18,-14l0 0z"/>
     <path class="fil0" d="M1616 658l3 -16 15 0 -7 28c-1,1 -3,1 -5,1 -2,0 -3,1 -5,1 -2,0 -3,0 -5,0 -10,0 -18,-3 -23,-10 -2,-3 -3,-6 -4,-10 -1,-4 -1,-8 0,-12 1,-3 2,-6 3,-8 1,-3 3,-5 5,-8 2,-2 4,-4 6,-6 2,-2 5,-4 7,-5 3,-2 7,-4 10,-5 4,-1 8,-1 12,-1 2,0 5,0 7,0 2,1 4,1 7,1l-4 16c-4,-2 -8,-3 -12,-3 -14,-1 -24,6 -27,21 -1,6 3,15 10,16 1,0 5,0 7,0l0 0z"/>
    </g>
   </g>
   <g>
    <polygon class="fil2" points="0,353 50,341 179,629 120,621 "/>
    <polygon class="fil2" points="53,228 102,212 141,299 91,312 "/>
    <polygon class="fil3" points="0,353 91,312 141,299 50,341 "/>
    <polygon class="fil2" points="223,608 269,585 309,676 249,667 "/>
    <polygon class="fil4" points="50,341 141,299 269,585 179,629 "/>
    <polygon class="fil4" points="509,126 576,96 693,357 628,393 "/>
    <polygon class="fil4" points="102,212 188,173 226,258 141,299 "/>
    <polygon class="fil4" points="151,90 371,0 406,79 188,173 "/>
    <polygon class="fil4" points="562,428 628,393 662,470 598,509 "/>
    <polygon class="fil4" points="406,79 474,48 509,126 441,157 "/>
    <polygon class="fil2" points="467,145 509,126 628,393 583,399 "/>
    <polygon class="fil2" points="513,434 562,428 598,509 547,510 "/>
    <polygon class="fil3" points="53,228 137,191 188,173 102,212 "/>
    <polygon class="fil3" points="259,563 295,545 353,543 269,585 "/>
    <polygon class="fil3" points="513,434 583,399 628,393 562,428 "/>
    <polygon class="fil3" points="380,603 547,510 598,509 391,628 "/>
    <polygon class="fil2" points="344,656 391,628 429,712 365,702 "/>
    <polygon class="fil2" points="102,112 151,90 188,173 137,191 "/>
    <polygon class="fil2" points="363,97 406,79 441,157 394,168 "/>
    <polygon class="fil4" points="391,628 598,509 630,581 429,712 "/>
    <polygon class="fil4" points="269,585 353,543 391,628 309,676 "/>
    <polygon class="fil3" points="405,76 429,66 474,48 406,79 "/>
    <polygon class="fil3" points="506,121 527,112 576,96 509,126 "/>
   </g>
  </g>
 </g>
</svg>
