<?xml version="1.0" encoding="UTF-8"?>
<!DOCTYPE svg PUBLIC "-//W3C//DTD SVG 1.1//EN" "http://www.w3.org/Graphics/SVG/1.1/DTD/svg11.dtd">
<!-- Creator: CorelDRAW X8 -->
<svg xmlns="http://www.w3.org/2000/svg" xml:space="preserve" width="1832px" height="664px" version="1.1" style="shape-rendering:geometricPrecision; text-rendering:geometricPrecision; image-rendering:optimizeQuality; fill-rule:evenodd; clip-rule:evenodd"
viewBox="0 0 1832 665"
 xmlns:xlink="http://www.w3.org/1999/xlink">
 <defs>
  <style type="text/css">
   <![CDATA[
    .fil0 {fill:#008C43}
    .fil4 {fill:#2B2A29}
    .fil2 {fill:#54AF3A}
    .fil1 {fill:#7CB932}
    .fil3 {fill:#2B2A29;fill-rule:nonzero}
   ]]>
  </style>
 </defs>
 <g id="Слой_x0020_1">
  <metadata id="CorelCorpID_0Corel-Layer"/>
  <g id="_644004624">
   <g>
    <polygon class="fil0" points="0,329 46,319 167,587 112,579 "/>
    <polygon class="fil0" points="49,212 95,198 132,279 85,291 "/>
    <polygon class="fil1" points="0,329 85,291 132,279 46,319 "/>
    <polygon class="fil0" points="208,567 251,546 288,631 233,623 "/>
    <polygon class="fil2" points="46,319 132,279 251,546 167,588 "/>
    <polygon class="fil2" points="475,118 537,89 646,334 586,367 "/>
    <polygon class="fil2" points="95,198 176,162 211,241 132,279 "/>
    <polygon class="fil2" points="141,84 346,0 379,73 176,162 "/>
    <polygon class="fil2" points="524,399 586,367 618,439 558,475 "/>
    <polygon class="fil2" points="379,73 442,45 475,118 412,146 "/>
    <polygon class="fil0" points="436,135 475,118 586,367 544,372 "/>
    <polygon class="fil0" points="479,405 524,399 558,475 511,476 "/>
    <polygon class="fil1" points="49,212 127,178 176,162 95,198 "/>
    <polygon class="fil1" points="241,525 275,509 329,507 251,546 "/>
    <polygon class="fil1" points="479,405 544,372 586,367 524,399 "/>
    <polygon class="fil1" points="355,563 511,476 558,475 365,586 "/>
    <polygon class="fil0" points="321,612 365,586 400,665 340,655 "/>
    <polygon class="fil0" points="95,105 141,84 176,162 127,178 "/>
    <polygon class="fil0" points="339,91 379,73 412,146 368,157 "/>
    <polygon class="fil2" points="365,586 558,475 588,542 400,665 "/>
    <polygon class="fil2" points="251,546 329,507 365,586 288,631 "/>
    <polygon class="fil1" points="378,71 400,61 442,45 379,73 "/>
    <polygon class="fil1" points="473,113 492,105 537,89 475,118 "/>
   </g>
   <g>
    <polygon class="fil3" points="1281,524 1213,524 1271,230 1174,230 1186,170 1445,170 1434,230 1339,230 "/>
    <path class="fil3" d="M1509 171l204 0 -70 353 -67 0 58 -294 -78 0 -51 187c-8,32 -18,52 -29,67 -17,26 -50,37 -77,39 -15,1 -22,1 -41,1l-2 -63c13,1 27,-1 29,-1 54,-8 63,-56 86,-144l38 -145z"/>
    <path class="fil4" d="M1795 30c6,0 12,1 18,4 6,3 11,8 14,14 3,6 5,12 5,18 0,7 -2,13 -5,18 -3,6 -8,11 -13,14 -6,3 -12,5 -19,5 -6,0 -12,-2 -18,-5 -6,-3 -10,-8 -14,-14 -3,-5 -4,-11 -4,-18 0,-6 1,-12 4,-18 4,-6 8,-11 14,-14 6,-3 12,-4 18,-4zm0 6c-5,0 -10,1 -15,4 -5,2 -8,6 -11,11 -3,5 -4,10 -4,15 0,6 1,11 4,16 2,4 6,8 11,11 5,3 10,4 15,4 6,0 11,-2 15,-4 5,-3 9,-7 12,-11 3,-5 4,-10 4,-16 0,-5 -2,-10 -4,-15 -3,-5 -7,-9 -12,-11 -5,-3 -10,-4 -15,-4zm-16 50l0 -39 14 0c4,0 8,0 10,1 2,1 3,2 5,4 1,2 2,4 2,6 0,2 -1,5 -3,7 -2,2 -5,4 -9,4 2,0 3,1 4,2 1,1 3,4 6,8l4 7 -7 0 -4 -6c-3,-5 -5,-8 -7,-9 -1,-1 -2,-2 -5,-2l-3 0 0 17 -7 0 0 0zm7 -22l7 0c4,0 7,0 8,-1 1,-1 2,-3 2,-5 0,-1 -1,-2 -1,-3 -1,-1 -2,-2 -3,-2 -1,0 -3,-1 -6,-1l-7 0 0 12z"/>
    <polygon class="fil3" points="949,523 885,523 873,229 791,523 730,523 828,171 924,171 934,418 1047,171 1144,171 1103,523 1041,523 1079,231 "/>
    <g>
     <path class="fil3" d="M1398 578c-4,0 -8,2 -10,4 -3,2 -5,6 -6,10 -1,3 0,7 2,9 2,3 5,4 9,4 4,0 8,-1 11,-4 3,-2 5,-6 6,-9 0,-5 -1,-8 -3,-11 -2,-2 -5,-3 -9,-3zm3 -11c7,0 12,2 16,7 4,5 5,11 4,18 -2,6 -5,12 -11,17 -6,5 -12,8 -19,8 -7,0 -12,-3 -16,-8 -4,-5 -6,-11 -4,-17 1,-7 5,-13 11,-18 6,-5 12,-7 19,-7l0 0z"/>
     <polygon class="fil3" points="1329,568 1311,591 1321,615 1308,615 1303,602 1293,615 1280,615 1299,591 1290,568 1303,568 1307,580 1317,568 "/>
     <polygon class="fil3" points="1239,578 1232,615 1221,615 1229,578 1216,578 1218,568 1254,568 1252,578 "/>
     <polygon class="fil3" points="1091,568 1082,615 1071,615 1080,568 "/>
     <polygon class="fil3" points="1117,568 1097,591 1109,615 1096,615 1085,593 1086,589 1104,568 "/>
     <path class="fil3" d="M1059 601l8 6c0,1 -1,1 -3,3 -5,4 -11,6 -18,6 -7,0 -13,-2 -17,-7 -4,-4 -5,-10 -3,-17 1,-7 5,-13 10,-18 6,-5 13,-7 20,-7 7,0 15,3 17,10l-10 6c-2,-2 -4,-5 -10,-5 -3,0 -7,1 -10,4 -3,2 -5,6 -6,10 -1,3 0,7 2,10 2,2 5,3 8,4 3,0 7,-1 10,-3 1,-1 2,-2 2,-2z"/>
     <polygon class="fil3" points="1014,615 1003,615 1007,597 994,597 991,615 980,615 989,568 1000,568 996,587 1009,588 1013,568 1024,568 "/>
     <path class="fil4" d="M1538 568l16 0 -2 10 -14 0c-1,0 -2,2 -3,3l-6 34 -11 0 7 -37c1,-6 7,-10 13,-10l0 0z"/>
     <path class="fil3" d="M1467 568l-23 0c-7,0 -11,4 -13,10 -1,7 -3,18 -5,25 0,1 -1,2 -3,2l-3 0 -2 10 4 0c5,0 7,1 11,-2 3,-3 4,-9 5,-14l4 -21 12 0 -7 38 10 0 10 -48 0 0z"/>
     <polygon class="fil3" points="886,615 875,615 881,587 862,615 851,615 861,568 872,568 866,595 885,568 895,568 "/>
     <polygon class="fil3" points="930,626 919,626 921,615 894,615 903,568 914,568 906,605 919,605 927,568 938,568 930,605 934,605 "/>
     <polygon class="fil3" points="765,615 754,615 760,585 745,615 735,615 732,584 726,615 715,615 724,568 741,568 744,595 758,568 775,568 "/>
     <path class="fil3" d="M852 568l-23 0c-10,0 -12,5 -13,10l-3 18c-1,2 -2,5 -2,6 -1,1 -3,3 -5,3l-1 0 -4 21 11 0 2 -11 19 0 2 -10 -15 0c1,-1 3,-5 3,-7l4 -20 12 0 -8 37 4 0 -2 11 10 0 5 -21 -4 0 8 -37 0 0z"/>
     <polygon class="fil3" points="972,615 961,615 967,587 948,615 937,615 947,568 958,568 952,595 971,568 982,568 "/>
     <polygon class="fil3" points="1150,615 1140,615 1145,587 1127,615 1116,615 1125,568 1136,568 1131,595 1149,568 1160,568 "/>
     <polygon class="fil3" points="1587,615 1576,615 1581,587 1563,615 1552,615 1561,568 1572,568 1567,595 1585,568 1596,568 "/>
     <polygon class="fil3" points="1628,615 1617,615 1623,587 1604,615 1594,615 1603,568 1614,568 1609,595 1627,568 1638,568 "/>
     <path class="fil4" d="M1269 568l16 0 -2 10 -13 0c-3,0 -3,1 -4,4l-1 4 15 0 -2 10 -15 0 -1 6c0,1 0,3 2,3l14 0 -2 10 -17 0c-6,0 -9,-5 -8,-10l5 -27c1,-6 7,-10 13,-10z"/>
     <polygon class="fil3" points="1360,615 1349,615 1353,597 1340,597 1336,615 1326,615 1335,568 1346,568 1342,587 1355,588 1359,568 1370,568 "/>
     <path class="fil3" d="M1495 578c-5,0 -8,2 -11,4 -3,2 -5,6 -6,10 -1,3 0,7 2,9 2,3 5,4 9,4 5,0 8,-1 11,-4 3,-2 5,-6 6,-9 1,-5 0,-8 -3,-11 -2,-2 -5,-3 -8,-3zm2 -11c7,0 12,2 16,7 4,5 5,11 4,18 -1,6 -5,12 -11,17 -5,5 -12,8 -19,8 -7,0 -12,-3 -16,-8 -4,-5 -5,-11 -4,-17 2,-7 5,-13 11,-18 6,-5 13,-7 20,-7l-1 0z"/>
     <path class="fil4" d="M1178 568l16 0 -2 10 -13 0c-3,0 -4,1 -4,4l-1 4 15 0 -2 10 -15 0 -1 6c0,1 0,3 2,3l14 0 -2 10 -17 0c-6,0 -10,-5 -9,-10l6 -27c1,-6 7,-10 13,-10z"/>
     <path class="fil4" d="M791 568l16 0 -2 10 -13 0c-2,0 -3,1 -4,4l-1 4 15 0 -2 10 -15 0 -1 6c0,1 0,3 2,3l14 0 -2 10 -16 0c-7,0 -10,-5 -9,-10l5 -27c1,-6 7,-10 13,-10z"/>
    </g>
   </g>
  </g>
 </g>
</svg>
